<?xml version="1.0" encoding="utf-8"?>
<!-- Generator: Adobe Illustrator 25.2.1, SVG Export Plug-In . SVG Version: 6.00 Build 0)  -->
<svg version="1.1" id="Layer_1" xmlns="http://www.w3.org/2000/svg" xmlns:xlink="http://www.w3.org/1999/xlink" x="0px" y="0px"
	 viewBox="0 0 396 288" style="enable-background:new 0 0 396 288;" xml:space="preserve">
<style type="text/css">
	.st0{clip-path:url(#SVGID_3_);}
	.st1{fill:#B2FE66;}
	.st2{opacity:0.2;clip-path:url(#SVGID_3_);}
</style>
<g>
	<g>
		<defs>
			<rect id="SVGID_1_" y="0" width="396" height="288"/>
		</defs>
		<linearGradient id="SVGID_2_" gradientUnits="userSpaceOnUse" x1="113.6114" y1="-14.8743" x2="309.6115" y2="354.1257">
			<stop  offset="0" style="stop-color:#FFFFFF"/>
			<stop  offset="1" style="stop-color:#F0F7FC"/>
		</linearGradient>
		<use xlink:href="#SVGID_1_"  style="overflow:visible;fill:url(#SVGID_2_);"/>
		<clipPath id="SVGID_3_">
			<use xlink:href="#SVGID_1_"  style="overflow:visible;"/>
		</clipPath>
		<g class="st0">
			<g>
				<g>
					<g>
						<path class="st1" d="M229.99,58.11l-0.05-0.03l-22.28-12.86V19.43l0.05-0.03l22.28-12.86l0.05,0.03l22.28,12.86v25.78
							l-0.05,0.03L229.99,58.11z M207.86,45.1l22.14,12.78l22.13-12.78V19.54L229.99,6.76l-22.14,12.78V45.1z"/>
					</g>
					<g>
						<path class="st1" d="M274.45,58.11l-0.05-0.03l-22.28-12.86V19.43l0.05-0.03l22.28-12.86l0.05,0.03l22.28,12.86v25.78
							l-0.05,0.03L274.45,58.11z M252.32,45.1l22.13,12.78l22.13-12.78V19.54L274.45,6.76l-22.13,12.78V45.1z"/>
					</g>
					<g>
						<path class="st1" d="M318.92,58.11l-0.05-0.03l-22.28-12.86V19.43l0.05-0.03l22.28-12.86l0.05,0.03l22.28,12.86v25.78
							l-0.05,0.03L318.92,58.11z M296.78,45.1l22.13,12.78l22.13-12.78V19.54L318.92,6.76l-22.13,12.78V45.1z"/>
					</g>
					<g>
						<path class="st1" d="M363.38,58.11l-0.05-0.03l-22.28-12.86V19.43l0.05-0.03l22.28-12.86l0.05,0.03l22.28,12.86v25.78
							l-0.05,0.03L363.38,58.11z M341.24,45.1l22.14,12.78l22.13-12.78V19.54L363.38,6.76l-22.14,12.78V45.1z"/>
					</g>
					<g>
						<polygon class="st1" points="413.3,54.73 407.84,57.88 385.71,45.1 385.71,19.54 407.84,6.76 413.3,9.92 413.3,9.69 
							407.89,6.57 407.84,6.54 385.56,19.4 385.51,19.43 385.51,45.21 407.79,58.08 407.84,58.11 413.3,54.95 						"/>
					</g>
					<g>
						<path class="st1" d="M29.91,96.61l-0.05-0.03L7.58,83.72V57.94l0.05-0.03l22.28-12.86l0.05,0.03l22.28,12.86v25.78l-0.05,0.03
							L29.91,96.61z M7.77,83.61l22.13,12.78l22.13-12.78V58.05L29.91,45.27L7.77,58.05V83.61z"/>
					</g>
					<g>
						<path class="st1" d="M252.22,96.61l-0.05-0.03l-22.28-12.86V57.94l0.05-0.03l22.28-12.86l0.05,0.03l22.28,12.86v25.78
							l-0.05,0.03L252.22,96.61z M230.09,83.61l22.13,12.78l22.14-12.78V58.05l-22.14-12.78l-22.13,12.78V83.61z"/>
					</g>
					<g>
						<path class="st1" d="M296.69,96.61l-0.05-0.03l-22.28-12.86V57.94l0.05-0.03l22.28-12.86l0.05,0.03l22.28,12.86v25.78
							l-0.05,0.03L296.69,96.61z M274.55,83.61l22.13,12.78l22.13-12.78V58.05l-22.13-12.78l-22.13,12.78V83.61z"/>
					</g>
					<g>
						<path class="st1" d="M341.15,96.61l-0.05-0.03l-22.28-12.86V57.94l0.05-0.03l22.28-12.86l0.05,0.03l22.28,12.86v25.78
							l-0.05,0.03L341.15,96.61z M319.01,83.61l22.13,12.78l22.13-12.78V58.05l-22.13-12.78l-22.13,12.78V83.61z"/>
					</g>
					<g>
						<path class="st1" d="M385.61,96.61l-0.05-0.03l-22.28-12.86V57.94l0.05-0.03l22.28-12.86l0.05,0.03l22.28,12.86v25.78
							l-0.05,0.03L385.61,96.61z M363.48,83.61l22.13,12.78l22.13-12.78V58.05l-22.13-12.78l-22.13,12.78V83.61z"/>
					</g>
					<g>
						<polygon class="st1" points="413.3,86.7 407.94,83.61 407.94,58.05 413.3,54.95 413.3,54.73 407.79,57.91 407.75,57.94 
							407.75,83.72 413.3,86.93 						"/>
					</g>
					<g>
						<path class="st1" d="M318.92,135.12l-0.05-0.03l-22.28-12.86V96.44l0.05-0.03l22.28-12.86l0.05,0.03l22.28,12.86v25.78
							l-0.05,0.03L318.92,135.12z M296.78,122.12l22.13,12.78l22.13-12.78V96.56l-22.13-12.78l-22.13,12.78V122.12z"/>
					</g>
					<g>
						<path class="st1" d="M363.38,135.12l-0.05-0.03l-22.28-12.86V96.44l0.05-0.03l22.28-12.86l0.05,0.03l22.28,12.86v25.78
							l-0.05,0.03L363.38,135.12z M341.24,122.12l22.14,12.78l22.13-12.78V96.56l-22.13-12.78l-22.14,12.78V122.12z"/>
					</g>
					<g>
						<polygon class="st1" points="413.3,131.74 407.84,134.89 385.71,122.12 385.71,96.56 407.84,83.78 413.3,86.93 413.3,86.7 
							407.89,83.58 407.84,83.55 385.56,96.42 385.51,96.44 385.51,122.23 407.79,135.09 407.84,135.12 413.3,131.97 						"/>
					</g>
					<g>
						<path class="st1" d="M341.15,173.62l-0.05-0.03l-22.28-12.86v-25.78l0.05-0.03l22.28-12.86l0.05,0.03l22.28,12.86v25.78
							l-0.05,0.03L341.15,173.62z M319.01,160.62l22.13,12.78l22.13-12.78v-25.56l-22.13-12.78l-22.13,12.78V160.62z"/>
					</g>
					<g>
						<path class="st1" d="M385.61,173.62l-0.05-0.03l-22.28-12.86v-25.78l0.05-0.03l22.28-12.86l0.05,0.03l22.28,12.86v25.78
							l-0.05,0.03L385.61,173.62z M363.48,160.62l22.13,12.78l22.13-12.78v-25.56l-22.13-12.78l-22.13,12.78V160.62z"/>
					</g>
					<g>
						<polygon class="st1" points="413.3,163.72 407.94,160.62 407.94,135.06 413.3,131.97 413.3,131.74 407.79,134.92 
							407.75,134.95 407.75,160.73 413.3,163.94 						"/>
					</g>
					<g>
						<path class="st1" d="M52.14,212.13l-0.05-0.03l-22.28-12.86v-25.78l0.05-0.03l22.28-12.86l0.05,0.03l22.28,12.86v25.78
							l-0.05,0.03L52.14,212.13z M30.01,199.13l22.13,12.78l22.13-12.78v-25.56l-22.13-12.78l-22.13,12.78V199.13z"/>
					</g>
					<g>
						<path class="st1" d="M363.38,212.13l-0.05-0.03l-22.28-12.86v-25.78l0.05-0.03l22.28-12.86l0.05,0.03l22.28,12.86v25.78
							l-0.05,0.03L363.38,212.13z M341.24,199.13l22.14,12.78l22.13-12.78v-25.56l-22.13-12.78l-22.14,12.78V199.13z"/>
					</g>
					<g>
						<polygon class="st1" points="413.3,208.76 407.84,211.91 385.71,199.13 385.71,173.57 407.84,160.79 413.3,163.94 
							413.3,163.72 407.89,160.59 407.84,160.57 385.56,173.43 385.51,173.46 385.51,199.24 407.79,212.1 407.84,212.13 
							413.3,208.98 						"/>
					</g>
					<g>
						<path class="st1" d="M29.91,250.64l-0.05-0.03L7.58,237.74v-25.78l0.05-0.03l22.28-12.86l0.05,0.03l22.28,12.86v25.78
							l-0.05,0.03L29.91,250.64z M7.77,237.63l22.13,12.78l22.13-12.78v-25.56l-22.13-12.78L7.77,212.07V237.63z"/>
					</g>
					<g>
						<path class="st1" d="M74.37,250.64l-0.05-0.03l-22.28-12.86v-25.78l0.05-0.03l22.28-12.86l0.05,0.03l22.28,12.86v25.78
							l-0.05,0.03L74.37,250.64z M52.24,237.63l22.13,12.78l22.13-12.78v-25.56l-22.13-12.78l-22.13,12.78V237.63z"/>
					</g>
					<g>
						<path class="st1" d="M118.83,250.64l-0.05-0.03l-22.28-12.86v-25.78l0.05-0.03l22.28-12.86l0.05,0.03l22.28,12.86v25.78
							l-0.05,0.03L118.83,250.64z M96.7,237.63l22.13,12.78l22.14-12.78v-25.56l-22.14-12.78L96.7,212.07V237.63z"/>
					</g>
					<g>
						<path class="st1" d="M163.3,250.64l-0.05-0.03l-22.28-12.86v-25.78l0.05-0.03l22.28-12.86l0.05,0.03l22.28,12.86v25.78
							l-0.05,0.03L163.3,250.64z M141.16,237.63l22.14,12.78l22.13-12.78v-25.56l-22.13-12.78l-22.14,12.78V237.63z"/>
					</g>
					<g>
						<polygon class="st1" points="413.3,240.73 407.94,237.63 407.94,212.07 413.3,208.98 413.3,208.76 407.79,211.93 
							407.75,211.96 407.75,237.74 413.3,240.95 						"/>
					</g>
					<g>
						<path class="st1" d="M52.14,289.14l-0.05-0.03l-22.28-12.86v-25.78l0.05-0.03l22.28-12.86l0.05,0.03l22.28,12.86v25.78
							l-0.05,0.03L52.14,289.14z M30.01,276.14l22.13,12.78l22.13-12.78v-25.56L52.14,237.8l-22.13,12.78V276.14z"/>
					</g>
					<g>
						<path class="st1" d="M96.6,289.14l-0.05-0.03l-22.28-12.86v-25.78l0.05-0.03l22.28-12.86l0.05,0.03l22.28,12.86v25.78
							l-0.05,0.03L96.6,289.14z M74.47,276.14l22.14,12.78l22.13-12.78v-25.56L96.6,237.8l-22.14,12.78V276.14z"/>
					</g>
					<g>
						<path class="st1" d="M141.07,289.14l-0.05-0.03l-22.28-12.86v-25.78l0.05-0.03l22.28-12.86l0.05,0.03l22.28,12.86v25.78
							l-0.05,0.03L141.07,289.14z M118.93,276.14l22.13,12.78l22.13-12.78v-25.56l-22.13-12.78l-22.13,12.78V276.14z"/>
					</g>
					<g>
						<polygon class="st1" points="7.77,303.53 7.77,289.09 29.91,276.31 52.04,289.09 52.04,303.53 52.24,303.53 52.24,288.97 
							29.96,276.11 29.91,276.08 7.63,288.95 7.58,288.97 7.58,303.53 						"/>
					</g>
					<g>
						<polygon class="st1" points="52.24,303.53 52.24,289.09 74.37,276.31 96.51,289.09 96.51,303.53 96.7,303.53 96.7,288.97 
							74.42,276.11 74.37,276.08 52.09,288.95 52.04,288.97 52.04,303.53 						"/>
					</g>
					<g>
						<polygon class="st1" points="96.7,303.53 96.7,289.09 118.83,276.31 140.97,289.09 140.97,303.53 141.16,303.53 
							141.16,288.97 118.88,276.11 118.83,276.08 96.55,288.95 96.51,288.97 96.51,303.53 						"/>
					</g>
					<g>
						<polygon class="st1" points="141.16,303.53 141.16,289.09 163.3,276.31 185.43,289.09 185.43,303.53 185.62,303.53 
							185.62,288.97 163.34,276.11 163.3,276.08 141.02,288.95 140.97,288.97 140.97,303.53 						"/>
					</g>
					<g>
						<polygon class="st1" points="319.01,303.53 319.01,289.09 341.15,276.31 363.28,289.09 363.28,303.53 363.48,303.53 
							363.48,288.97 341.2,276.11 341.15,276.08 318.87,288.95 318.82,288.97 318.82,303.53 						"/>
					</g>
					<g>
						<polygon class="st1" points="363.48,303.53 363.48,289.09 385.61,276.31 407.75,289.09 407.75,303.53 407.94,303.53 
							407.94,288.97 385.66,276.11 385.61,276.08 363.33,288.95 363.28,288.97 363.28,303.53 						"/>
					</g>
				</g>
				<g>
					<g>
						<polygon class="st1" points="312.11,-34.72 312.11,-12.85 283.64,3.59 255.17,-12.85 255.17,-34.72 254.16,-34.72 
							254.16,-12.27 283.64,4.75 313.12,-12.27 313.12,-34.72 						"/>
					</g>
					<g>
						<polygon class="st1" points="370.06,-34.72 370.06,-12.85 341.59,3.59 313.12,-12.85 313.12,-34.72 312.11,-34.72 
							312.11,-12.27 341.59,4.75 371.06,-12.27 371.06,-34.72 						"/>
					</g>
					<g>
						<polygon class="st1" points="371.06,-12.85 371.06,-34.72 370.06,-34.72 370.06,-12.27 399.53,4.75 413.3,-3.2 413.3,-4.36 
							399.53,3.59 						"/>
					</g>
					<g>
						<path class="st1" d="M312.61,54.93l-29.48-17.02V3.88l29.48-17.02l29.48,17.02v34.04L312.61,54.93z M284.14,37.33l28.47,16.44
							l28.47-16.44V4.46l-28.47-16.44L284.14,4.46V37.33z"/>
					</g>
					<g>
						<path class="st1" d="M370.56,54.93l-29.48-17.02V3.88l29.48-17.02l29.48,17.02v34.04L370.56,54.93z M342.09,37.33l28.47,16.44
							l28.47-16.44V4.46l-28.47-16.44L342.09,4.46V37.33z"/>
					</g>
					<g>
						<polygon class="st1" points="413.3,44.99 400.04,37.33 400.04,4.46 413.3,-3.2 413.3,-4.36 399.03,3.88 399.03,37.92 
							413.3,46.15 						"/>
					</g>
					<g>
						<path class="st1" d="M341.59,105.12L312.11,88.1V54.06l29.48-17.02l29.48,17.02V88.1L341.59,105.12z M313.12,87.52
							l28.47,16.44l28.47-16.44V54.64l-28.47-16.44l-28.47,16.44V87.52z"/>
					</g>
					<g>
						<polygon class="st1" points="413.3,96.01 399.53,103.96 371.06,87.52 371.06,54.64 399.53,38.21 413.3,46.15 413.3,44.99 
							399.53,37.04 370.06,54.06 370.06,88.1 399.53,105.12 413.3,97.17 						"/>
					</g>
					<g>
						<polygon class="st1" points="-20.15,95.84 -20.15,97.01 -6.6,104.83 -6.6,137.7 -20.15,145.52 -20.15,146.68 -5.59,138.28 
							-5.59,104.25 						"/>
					</g>
					<g>
						<path class="st1" d="M22.88,155.3L-6.6,138.28v-34.04l29.48-17.02l29.48,17.02v34.04L22.88,155.3z M-5.59,137.7l28.47,16.44
							l28.47-16.44v-32.88L22.88,88.39l-28.47,16.44V137.7z"/>
					</g>
					<g>
						<path class="st1" d="M80.82,155.3l-29.48-17.02v-34.04l29.48-17.02l29.48,17.02v34.04L80.82,155.3z M52.35,137.7l28.47,16.44
							l28.47-16.44v-32.88L80.82,88.39l-28.47,16.44V137.7z"/>
					</g>
					<g>
						<polygon class="st1" points="413.3,145.36 400.04,137.7 400.04,104.83 413.3,97.17 413.3,96.01 399.03,104.25 399.03,138.28 
							413.3,146.52 						"/>
					</g>
					<g>
						<polygon class="st1" points="-6.1,137.41 -20.15,145.52 -20.15,146.68 -6.1,138.57 22.37,155.01 22.37,187.89 -6.1,204.32 
							-20.15,196.21 -20.15,197.37 -6.1,205.48 23.38,188.47 23.38,154.43 						"/>
					</g>
					<g>
						<path class="st1" d="M51.85,205.48l-29.48-17.02v-34.04l29.48-17.02l29.48,17.02v34.04L51.85,205.48z M23.38,187.89
							l28.47,16.44l28.47-16.44v-32.88l-28.47-16.44l-28.47,16.44V187.89z"/>
					</g>
					<g>
						<path class="st1" d="M109.8,205.48l-29.48-17.02v-34.04l29.48-17.02l29.48,17.02v34.04L109.8,205.48z M81.33,187.89
							l28.47,16.44l28.47-16.44v-32.88l-28.47-16.44l-28.47,16.44V187.89z"/>
					</g>
					<g>
						<polygon class="st1" points="-20.15,196.21 -20.15,197.37 -6.6,205.19 -6.6,238.07 -20.15,245.89 -20.15,247.05 -5.59,238.65 
							-5.59,204.61 						"/>
					</g>
					<g>
						<path class="st1" d="M22.88,255.67L-6.6,238.65v-34.04l29.48-17.02l29.48,17.02v34.04L22.88,255.67z M-5.59,238.07
							l28.47,16.44l28.47-16.44v-32.88l-28.47-16.44l-28.47,16.44V238.07z"/>
					</g>
					<g>
						<path class="st1" d="M80.82,255.67l-29.48-17.02v-34.04l29.48-17.02l29.48,17.02v34.04L80.82,255.67z M52.35,238.07
							l28.47,16.44l28.47-16.44v-32.88l-28.47-16.44l-28.47,16.44V238.07z"/>
					</g>
					<g>
						<path class="st1" d="M370.56,255.67l-29.48-17.02v-34.04l29.48-17.02l29.48,17.02v34.04L370.56,255.67z M342.09,238.07
							l28.47,16.44l28.47-16.44v-32.88l-28.47-16.44l-28.47,16.44V238.07z"/>
					</g>
					<g>
						<polygon class="st1" points="-20.15,297.74 -10.12,303.53 -8.11,303.53 -20.15,296.58 						"/>
						<polygon class="st1" points="-6.1,237.78 -20.15,245.89 -20.15,247.05 -6.1,238.94 22.37,255.38 22.37,288.25 -4.08,303.53 
							-2.07,303.53 23.38,288.83 23.38,254.8 						"/>
					</g>
					<g>
						<polygon class="st1" points="49.84,303.53 23.38,288.25 23.38,255.38 51.85,238.94 80.32,255.38 80.32,288.25 53.86,303.53 
							55.88,303.53 81.33,288.83 81.33,254.8 51.85,237.78 22.37,254.8 22.37,288.83 47.83,303.53 						"/>
					</g>
					<g>
						<polygon class="st1" points="107.79,303.53 81.33,288.25 81.33,255.38 109.8,238.94 138.27,255.38 138.27,288.25 
							111.81,303.53 113.82,303.53 139.28,288.83 139.28,254.8 109.8,237.78 80.32,254.8 80.32,288.83 105.77,303.53 						"/>
					</g>
					<g>
						<polygon class="st1" points="339.58,303.53 313.12,288.25 313.12,255.38 341.59,238.94 370.06,255.38 370.06,288.25 
							343.6,303.53 345.61,303.53 371.06,288.83 371.06,254.8 341.59,237.78 312.11,254.8 312.11,288.83 337.56,303.53 						"/>
					</g>
					<g>
						<polygon class="st1" points="399.53,238.94 413.3,246.89 413.3,245.73 399.53,237.78 370.06,254.8 370.06,288.83 
							395.51,303.53 397.52,303.53 371.06,288.25 371.06,255.38 						"/>
						<polygon class="st1" points="413.3,296.74 401.55,303.53 403.56,303.53 413.3,297.9 						"/>
					</g>
					<g>
						<polygon class="st1" points="-20.15,296.58 -20.15,297.74 -10.12,303.53 -8.11,303.53 						"/>
					</g>
					<g>
						<polygon class="st1" points="-2.07,303.53 22.88,289.12 47.83,303.53 49.84,303.53 22.88,287.96 -4.08,303.53 						"/>
					</g>
					<g>
						<polygon class="st1" points="55.88,303.53 80.82,289.12 105.77,303.53 107.79,303.53 80.82,287.96 53.86,303.53 						"/>
					</g>
					<g>
						<polygon class="st1" points="113.82,303.53 138.77,289.12 163.72,303.53 165.73,303.53 138.77,287.96 111.81,303.53 						"/>
					</g>
					<g>
						<polygon class="st1" points="171.77,303.53 196.72,289.12 221.67,303.53 223.68,303.53 196.72,287.96 169.76,303.53 						"/>
					</g>
					<g>
						<polygon class="st1" points="229.72,303.53 254.67,289.12 279.62,303.53 281.63,303.53 254.67,287.96 227.7,303.53 						"/>
					</g>
					<g>
						<polygon class="st1" points="287.66,303.53 312.61,289.12 337.56,303.53 339.58,303.53 312.61,287.96 285.65,303.53 						"/>
					</g>
					<g>
						<polygon class="st1" points="345.61,303.53 370.56,289.12 395.51,303.53 397.52,303.53 370.56,287.96 343.6,303.53 						"/>
					</g>
					<g>
						<polygon class="st1" points="413.3,296.74 401.55,303.53 403.56,303.53 413.3,297.9 						"/>
					</g>
				</g>
				<g>
					<path class="st1" d="M52.14,59.59c0.88,0,1.6-0.72,1.6-1.6s-0.72-1.6-1.6-1.6c-0.88,0-1.6,0.72-1.6,1.6
						S51.26,59.59,52.14,59.59z"/>
					<path class="st1" d="M185.53,6.92c0.15,0,0.27-0.12,0.27-0.27c0-0.15-0.12-0.27-0.27-0.27c-0.15,0-0.27,0.12-0.27,0.27
						C185.26,6.8,185.38,6.92,185.53,6.92z"/>
					<path class="st1" d="M207.76,16.42c-1.69,0-3.07,1.37-3.07,3.07c0,1.69,1.37,3.07,3.07,3.07c1.69,0,3.07-1.37,3.07-3.07
						C210.83,17.8,209.45,16.42,207.76,16.42z"/>
					<path class="st1" d="M207.76,47.08c1.06,0,1.92-0.86,1.92-1.92c0-1.06-0.86-1.92-1.92-1.92c-1.06,0-1.92,0.86-1.92,1.92
						C205.84,46.22,206.7,47.08,207.76,47.08z"/>
					<path class="st1" d="M229.99,59.72c0.95,0,1.73-0.77,1.73-1.73c0-0.95-0.77-1.73-1.73-1.73c-0.95,0-1.73,0.77-1.73,1.73
						C228.26,58.95,229.04,59.72,229.99,59.72z"/>
					<circle class="st1" cx="229.99" cy="6.65" r="0.89"/>
					<path class="st1" d="M252.22,21.25c0.97,0,1.76-0.79,1.76-1.76c0-0.97-0.79-1.76-1.76-1.76c-0.97,0-1.76,0.79-1.76,1.76
						C250.46,20.46,251.25,21.25,252.22,21.25z"/>
					<path class="st1" d="M252.22,42.07c-1.71,0-3.09,1.38-3.09,3.09c0,1.71,1.38,3.09,3.09,3.09s3.09-1.38,3.09-3.09
						C255.31,43.45,253.93,42.07,252.22,42.07z"/>
					<path class="st1" d="M274.45,7.95c0.72,0,1.3-0.58,1.3-1.3c0-0.72-0.58-1.3-1.3-1.3c-0.72,0-1.3,0.58-1.3,1.3
						C273.15,7.37,273.74,7.95,274.45,7.95z"/>
					<path class="st1" d="M296.69,21.89c1.32,0,2.4-1.07,2.4-2.4c0-1.32-1.07-2.4-2.4-2.4s-2.4,1.07-2.4,2.4
						C294.29,20.81,295.36,21.89,296.69,21.89z"/>
					<circle class="st1" cx="296.69" cy="45.16" r="2.86"/>
					<path class="st1" d="M318.92,8.15c0.83,0,1.5-0.67,1.5-1.5c0-0.83-0.67-1.5-1.5-1.5c-0.83,0-1.5,0.67-1.5,1.5
						C317.42,7.48,318.09,8.15,318.92,8.15z"/>
					<path class="st1" d="M341.15,21.21c0.95,0,1.72-0.77,1.72-1.72c0-0.95-0.77-1.72-1.72-1.72s-1.72,0.77-1.72,1.72
						C339.43,20.44,340.2,21.21,341.15,21.21z"/>
					<circle class="st1" cx="341.15" cy="45.16" r="1.23"/>
					<path class="st1" d="M363.38,7.81c0.64,0,1.16-0.52,1.16-1.16c0-0.64-0.52-1.16-1.16-1.16c-0.64,0-1.16,0.52-1.16,1.16
						C362.22,7.29,362.74,7.81,363.38,7.81z"/>
					<path class="st1" d="M385.61,21.31c1.01,0,1.82-0.82,1.82-1.82c0-1.01-0.82-1.82-1.82-1.82c-1.01,0-1.82,0.82-1.82,1.82
						C383.79,20.49,384.6,21.31,385.61,21.31z"/>
					<circle class="st1" cx="385.61" cy="45.16" r="2.07"/>
					<path class="st1" d="M407.84,8.39c0.96,0,1.74-0.78,1.74-1.74c0-0.96-0.78-1.74-1.74-1.74c-0.96,0-1.74,0.78-1.74,1.74
						C406.1,7.61,406.88,8.39,407.84,8.39z"/>
					<path class="st1" d="M29.91,94.46c-1.13,0-2.04,0.92-2.04,2.04c0,1.13,0.92,2.05,2.04,2.05s2.05-0.92,2.05-2.05
						C31.95,95.37,31.04,94.46,29.91,94.46z"/>
					<circle class="st1" cx="7.68" cy="83.66" r="1.29"/>
					<path class="st1" d="M7.68,58.97c0.54,0,0.98-0.44,0.98-0.98c0-0.54-0.44-0.98-0.98-0.98S6.7,57.46,6.7,57.99
						C6.7,58.53,7.14,58.97,7.68,58.97z"/>
					<circle class="st1" cx="29.91" cy="45.16" r="2.99"/>
					<path class="st1" d="M52.14,86.18c1.39,0,2.51-1.13,2.51-2.51s-1.13-2.51-2.51-2.51c-1.39,0-2.51,1.13-2.51,2.51
						S50.75,86.18,52.14,86.18z"/>
					<path class="st1" d="M229.99,85.98c1.28,0,2.32-1.04,2.32-2.32c0-1.28-1.04-2.32-2.32-2.32c-1.28,0-2.32,1.04-2.32,2.32
						C227.67,84.95,228.71,85.98,229.99,85.98z"/>
					<path class="st1" d="M274.45,56.81c-0.65,0-1.19,0.53-1.19,1.19c0,0.65,0.53,1.19,1.19,1.19c0.65,0,1.19-0.53,1.19-1.19
						C275.64,57.34,275.11,56.81,274.45,56.81z"/>
					<path class="st1" d="M274.45,85.86c1.21,0,2.2-0.98,2.2-2.2s-0.98-2.2-2.2-2.2c-1.21,0-2.2,0.98-2.2,2.2
						S273.24,85.86,274.45,85.86z"/>
					<circle class="st1" cx="296.69" cy="96.5" r="1.39"/>
					<path class="st1" d="M318.92,54.75c-1.79,0-3.25,1.45-3.25,3.25c0,1.79,1.45,3.25,3.25,3.25c1.79,0,3.25-1.45,3.25-3.25
						C322.17,56.2,320.71,54.75,318.92,54.75z"/>
					<path class="st1" d="M363.38,60.4c1.33,0,2.41-1.08,2.41-2.41c0-1.33-1.08-2.41-2.41-2.41c-1.33,0-2.41,1.08-2.41,2.41
						C360.97,59.33,362.05,60.4,363.38,60.4z"/>
					<path class="st1" d="M385.61,98.9c1.33,0,2.4-1.08,2.4-2.4c0-1.33-1.08-2.4-2.4-2.4c-1.33,0-2.4,1.08-2.4,2.4
						C383.21,97.83,384.28,98.9,385.61,98.9z"/>
					<path class="st1" d="M363.38,86.5c1.56,0,2.83-1.27,2.83-2.83s-1.27-2.83-2.83-2.83c-1.56,0-2.83,1.27-2.83,2.83
						S361.82,86.5,363.38,86.5z"/>
					<path class="st1" d="M407.84,60.57c1.42,0,2.57-1.15,2.57-2.58c0-1.42-1.15-2.58-2.57-2.58c-1.42,0-2.58,1.15-2.58,2.58
						C405.27,59.42,406.42,60.57,407.84,60.57z"/>
					<path class="st1" d="M254.07,96.5c0-1.02-0.83-1.85-1.85-1.85c-1.02,0-1.85,0.83-1.85,1.85c0,1.02,0.83,1.85,1.85,1.85
						C253.24,98.35,254.07,97.52,254.07,96.5z"/>
					<circle class="st1" cx="318.92" cy="83.66" r="1.49"/>
					<path class="st1" d="M341.15,98.1c0.88,0,1.6-0.71,1.6-1.6c0-0.88-0.71-1.6-1.6-1.6c-0.88,0-1.6,0.71-1.6,1.6
						C339.55,97.38,340.27,98.1,341.15,98.1z"/>
					<circle class="st1" cx="407.84" cy="135.01" r="1.58"/>
					<path class="st1" d="M385.61,120.11c-1.14,0-2.06,0.92-2.06,2.06c0,1.14,0.92,2.06,2.06,2.06c1.14,0,2.06-0.92,2.06-2.06
						C387.67,121.03,386.75,120.11,385.61,120.11z"/>
					<circle class="st1" cx="407.84" cy="83.66" r="1.97"/>
					<path class="st1" d="M29.91,171.17c-1.29,0-2.34,1.05-2.34,2.34s1.05,2.34,2.34,2.34c1.29,0,2.34-1.05,2.34-2.34
						S31.2,171.17,29.91,171.17z"/>
					<circle class="st1" cx="7.68" cy="160.68" r="0.21"/>
					<circle class="st1" cx="7.68" cy="135.01" r="1.87"/>
					<path class="st1" d="M29.91,120.56c-0.89,0-1.61,0.72-1.61,1.61c0,0.89,0.72,1.61,1.61,1.61c0.89,0,1.61-0.72,1.61-1.61
						C31.52,121.28,30.8,120.56,29.91,120.56z"/>
					<path class="st1" d="M72.92,173.51c0,0.8,0.65,1.46,1.46,1.46c0.8,0,1.46-0.65,1.46-1.46c0-0.8-0.65-1.46-1.46-1.46
						C73.57,172.06,72.92,172.71,72.92,173.51z"/>
					<path class="st1" d="M296.69,119.79c-1.31,0-2.38,1.06-2.38,2.38c0,1.31,1.06,2.38,2.38,2.38s2.38-1.06,2.38-2.38
						C299.06,120.86,298,119.79,296.69,119.79z"/>
					<path class="st1" d="M316.45,135.01c0,1.36,1.1,2.47,2.47,2.47c1.36,0,2.47-1.1,2.47-2.47c0-1.36-1.1-2.47-2.47-2.47
						C317.55,132.54,316.45,133.64,316.45,135.01z"/>
					<circle class="st1" cx="341.15" cy="173.51" r="1.49"/>
					<circle class="st1" cx="318.92" cy="160.68" r="1.94"/>
					<circle class="st1" cx="341.15" cy="122.17" r="2.07"/>
					<circle class="st1" cx="363.38" cy="160.68" r="2.94"/>
					<path class="st1" d="M385.61,175.17c0.92,0,1.66-0.74,1.66-1.66s-0.74-1.66-1.66-1.66c-0.92,0-1.66,0.74-1.66,1.66
						S384.69,175.17,385.61,175.17z"/>
					<path class="st1" d="M363.38,137.92c1.61,0,2.91-1.3,2.91-2.91c0-1.61-1.3-2.91-2.91-2.91c-1.61,0-2.91,1.3-2.91,2.91
						C360.47,136.61,361.77,137.92,363.38,137.92z"/>
					<circle class="st1" cx="407.84" cy="160.68" r="1.32"/>
					<path class="st1" d="M52.14,163.51c1.57,0,2.83-1.27,2.83-2.83c0-1.57-1.27-2.83-2.83-2.83c-1.57,0-2.83,1.27-2.83,2.83
						C49.3,162.24,50.57,163.51,52.14,163.51z"/>
					<path class="st1" d="M74.37,201.59c1.33,0,2.41-1.08,2.41-2.41c0-1.33-1.08-2.41-2.41-2.41c-1.33,0-2.41,1.08-2.41,2.41
						C71.96,200.51,73.04,201.59,74.37,201.59z"/>
					<path class="st1" d="M119.98,199.18c0-0.63-0.51-1.14-1.14-1.14s-1.14,0.51-1.14,1.14c0,0.63,0.51,1.14,1.14,1.14
						S119.98,199.81,119.98,199.18z"/>
					<path class="st1" d="M141.07,214.23c1.22,0,2.21-0.99,2.21-2.21c0-1.22-0.99-2.21-2.21-2.21s-2.21,0.99-2.21,2.21
						C138.85,213.24,139.84,214.23,141.07,214.23z"/>
					<path class="st1" d="M165.43,199.18c0-1.18-0.96-2.14-2.14-2.14s-2.14,0.96-2.14,2.14c0,1.18,0.96,2.14,2.14,2.14
						S165.43,200.36,165.43,199.18z"/>
					<path class="st1" d="M185.53,214.52c1.38,0,2.5-1.12,2.5-2.5c0-1.38-1.12-2.5-2.5-2.5c-1.38,0-2.5,1.12-2.5,2.5
						C183.03,213.4,184.15,214.52,185.53,214.52z"/>
					<circle class="st1" cx="29.91" cy="250.52" r="1.44"/>
					<circle class="st1" cx="7.68" cy="237.69" r="1.15"/>
					<path class="st1" d="M7.13,212.02c0,0.3,0.24,0.55,0.55,0.55c0.3,0,0.55-0.24,0.55-0.55c0-0.3-0.24-0.55-0.55-0.55
						C7.38,211.47,7.13,211.72,7.13,212.02z"/>
					<circle class="st1" cx="29.91" cy="199.18" r="2.26"/>
					<path class="st1" d="M50.28,237.69c0,1.03,0.83,1.86,1.86,1.86c1.03,0,1.86-0.83,1.86-1.86c0-1.03-0.83-1.86-1.86-1.86
						C51.11,235.83,50.28,236.66,50.28,237.69z"/>
					<path class="st1" d="M53.42,212.02c0-0.71-0.57-1.28-1.28-1.28c-0.71,0-1.28,0.57-1.28,1.28c0,0.71,0.57,1.28,1.28,1.28
						C52.85,213.3,53.42,212.72,53.42,212.02z"/>
					<path class="st1" d="M96.6,210.97c-0.58,0-1.05,0.47-1.05,1.05c0,0.58,0.47,1.05,1.05,1.05c0.58,0,1.05-0.47,1.05-1.05
						C97.65,211.44,97.18,210.97,96.6,210.97z"/>
					<path class="st1" d="M117.07,250.52c0,0.97,0.79,1.76,1.76,1.76s1.76-0.79,1.76-1.76c0-0.97-0.79-1.76-1.76-1.76
						S117.07,249.55,117.07,250.52z"/>
					<path class="st1" d="M96.6,235.15c-1.4,0-2.54,1.14-2.54,2.54c0,1.4,1.14,2.54,2.54,2.54c1.4,0,2.54-1.14,2.54-2.54
						C99.14,236.29,98,235.15,96.6,235.15z"/>
					<path class="st1" d="M185.53,240.43c1.51,0,2.74-1.23,2.74-2.74c0-1.51-1.23-2.74-2.74-2.74s-2.74,1.23-2.74,2.74
						C182.79,239.2,184.02,240.43,185.53,240.43z"/>
					<path class="st1" d="M341.15,249.15c-0.76,0-1.37,0.61-1.37,1.37s0.61,1.37,1.37,1.37c0.76,0,1.37-0.61,1.37-1.37
						S341.91,249.15,341.15,249.15z"/>
					<path class="st1" d="M341.15,200.78c0.88,0,1.6-0.72,1.6-1.6c0-0.88-0.72-1.6-1.6-1.6c-0.88,0-1.6,0.72-1.6,1.6
						C339.55,200.07,340.26,200.78,341.15,200.78z"/>
					<path class="st1" d="M363.38,208.89c-1.73,0-3.13,1.4-3.13,3.13s1.4,3.13,3.13,3.13c1.73,0,3.13-1.4,3.13-3.13
						S365.11,208.89,363.38,208.89z"/>
					<path class="st1" d="M385.61,200.88c0.94,0,1.7-0.76,1.7-1.7c0-0.94-0.76-1.7-1.7-1.7c-0.94,0-1.7,0.76-1.7,1.7
						C383.91,200.12,384.67,200.88,385.61,200.88z"/>
					<path class="st1" d="M407.84,214.56c1.41,0,2.55-1.14,2.55-2.55c0-1.41-1.14-2.55-2.55-2.55s-2.55,1.14-2.55,2.55
						C405.3,213.42,406.44,214.56,407.84,214.56z"/>
					<path class="st1" d="M407.84,234.29c-1.88,0-3.4,1.52-3.4,3.4c0,1.88,1.52,3.4,3.4,3.4c1.88,0,3.4-1.52,3.4-3.4
						C411.24,235.81,409.72,234.29,407.84,234.29z"/>
					<path class="st1" d="M72.69,250.52c0,0.93,0.75,1.69,1.69,1.69c0.93,0,1.68-0.75,1.68-1.69c0-0.93-0.75-1.69-1.68-1.69
						C73.44,248.84,72.69,249.59,72.69,250.52z"/>
					<path class="st1" d="M74.37,278.95c1.52,0,2.76-1.23,2.76-2.76c0-1.52-1.23-2.76-2.76-2.76c-1.52,0-2.76,1.23-2.76,2.76
						C71.61,277.72,72.85,278.95,74.37,278.95z"/>
					<circle class="st1" cx="141.07" cy="237.69" r="2.88"/>
					<circle class="st1" cx="163.3" cy="250.52" r="1.06"/>
					<path class="st1" d="M185.53,291.15c1.17,0,2.12-0.95,2.12-2.12c0-1.17-0.95-2.12-2.12-2.12c-1.17,0-2.12,0.95-2.12,2.12
						C183.4,290.2,184.35,291.15,185.53,291.15z"/>
					<circle class="st1" cx="163.3" cy="276.19" r="3.25"/>
					<path class="st1" d="M342.99,276.19c0-1.02-0.83-1.85-1.85-1.85s-1.85,0.83-1.85,1.85c0,1.02,0.83,1.85,1.85,1.85
						S342.99,277.21,342.99,276.19z"/>
					<path class="st1" d="M385.61,252.93c1.33,0,2.4-1.08,2.4-2.4c0-1.33-1.08-2.4-2.4-2.4c-1.33,0-2.4,1.08-2.4,2.4
						C383.21,251.85,384.28,252.93,385.61,252.93z"/>
					<path class="st1" d="M385.61,273.79c-1.33,0-2.4,1.07-2.4,2.4c0,1.33,1.07,2.4,2.4,2.4s2.4-1.07,2.4-2.4
						C388.01,274.87,386.94,273.79,385.61,273.79z"/>
					<path class="st1" d="M8.1,289.03c0-0.24-0.19-0.43-0.43-0.43s-0.43,0.19-0.43,0.43c0,0.23,0.19,0.43,0.43,0.43
						S8.1,289.26,8.1,289.03z"/>
					<path class="st1" d="M29.91,274.81c-0.77,0-1.39,0.62-1.39,1.39c0,0.77,0.62,1.39,1.39,1.39c0.77,0,1.39-0.62,1.39-1.39
						C31.29,275.43,30.67,274.81,29.91,274.81z"/>
					<path class="st1" d="M52.14,285.49c-1.95,0-3.54,1.58-3.54,3.54c0,1.95,1.58,3.54,3.54,3.54c1.95,0,3.54-1.58,3.54-3.54
						C55.68,287.08,54.09,285.49,52.14,285.49z"/>
					<path class="st1" d="M96.6,286.89c-1.18,0-2.14,0.96-2.14,2.14c0,1.18,0.96,2.14,2.14,2.14c1.18,0,2.14-0.96,2.14-2.14
						C98.74,287.85,97.78,286.89,96.6,286.89z"/>
					<path class="st1" d="M118.83,278.63c1.34,0,2.43-1.09,2.43-2.43c0-1.34-1.09-2.43-2.43-2.43s-2.43,1.09-2.43,2.43
						C116.4,277.54,117.49,278.63,118.83,278.63z"/>
					<path class="st1" d="M143.85,289.03c0-1.54-1.25-2.78-2.78-2.78s-2.78,1.25-2.78,2.78c0,1.54,1.25,2.78,2.78,2.78
						S143.85,290.57,143.85,289.03z"/>
					<path class="st1" d="M318.92,290.94c1.05,0,1.91-0.86,1.91-1.91c0-1.05-0.86-1.91-1.91-1.91c-1.05,0-1.91,0.86-1.91,1.91
						C317.01,290.08,317.86,290.94,318.92,290.94z"/>
					<path class="st1" d="M363.38,291.14c1.17,0,2.11-0.95,2.11-2.11c0-1.17-0.95-2.11-2.11-2.11c-1.17,0-2.11,0.95-2.11,2.11
						C361.27,290.2,362.21,291.14,363.38,291.14z"/>
				</g>
			</g>
		</g>
		<g class="st2">
			<g>
				<g>
					<g>
						<polygon class="st1" points="-16.46,-34.72 -16.46,-7.56 -20.15,-5.43 -20.15,-5.16 -16.28,-7.39 -16.22,-7.42 -16.22,-34.72 
													"/>
					</g>
					<g>
						<polygon class="st1" points="254.89,-34.72 254.89,-7.56 227.87,8.04 200.85,-7.56 200.85,-34.72 200.62,-34.72 200.62,-7.42 
							227.81,8.28 227.87,8.31 255.06,-7.39 255.12,-7.42 255.12,-34.72 						"/>
					</g>
					<g>
						<polygon class="st1" points="309.16,-34.72 309.16,-7.56 282.14,8.04 255.12,-7.56 255.12,-34.72 254.89,-34.72 254.89,-7.42 
							282.08,8.28 282.14,8.31 309.33,-7.39 309.39,-7.42 309.39,-34.72 						"/>
					</g>
					<g>
						<polygon class="st1" points="363.43,-34.72 363.43,-7.56 336.41,8.04 309.39,-7.56 309.39,-34.72 309.16,-34.72 309.16,-7.42 
							336.35,8.28 336.41,8.31 363.6,-7.39 363.66,-7.42 363.66,-34.72 						"/>
					</g>
					<g>
						<polygon class="st1" points="363.66,-7.56 363.66,-34.72 363.43,-34.72 363.43,-7.42 390.62,8.28 390.68,8.31 407.85,-1.61 
							407.85,-1.88 390.68,8.04 						"/>
					</g>
					<g>
						<path class="st1" d="M309.27,55.31l-0.06-0.03l-27.19-15.7V8.11l0.06-0.03l27.19-15.7l0.06,0.03l27.19,15.7v31.47l-0.06,0.03
							L309.27,55.31z M282.26,39.44l27.02,15.6l27.02-15.6V8.24l-27.02-15.6l-27.02,15.6V39.44z"/>
					</g>
					<g>
						<path class="st1" d="M363.54,55.31l-0.06-0.03l-27.19-15.7V8.11l0.06-0.03l27.19-15.7l0.06,0.03l27.19,15.7v31.47l-0.06,0.03
							L363.54,55.31z M336.53,39.44l27.02,15.6l27.02-15.6V8.24l-27.02-15.6l-27.02,15.6V39.44z"/>
					</g>
					<g>
						<polygon class="st1" points="407.85,49.29 390.79,39.44 390.79,8.24 407.85,-1.61 407.85,-1.88 390.62,8.07 390.56,8.11 
							390.56,39.57 407.85,49.56 						"/>
					</g>
					<g>
						<path class="st1" d="M336.41,102.31l-0.06-0.03l-27.19-15.7V55.1l0.06-0.03l27.19-15.7l0.06,0.03l27.19,15.7v31.47l-0.06,0.03
							L336.41,102.31z M309.39,86.44l27.02,15.6l27.02-15.6v-31.2l-27.02-15.6l-27.02,15.6V86.44z"/>
					</g>
					<g>
						<polygon class="st1" points="407.85,92.12 390.68,102.03 363.66,86.44 363.66,55.24 390.68,39.64 407.85,49.56 407.85,49.29 
							390.74,39.4 390.68,39.37 363.48,55.07 363.43,55.1 363.43,86.57 390.62,102.27 390.68,102.31 407.85,92.39 						"/>
					</g>
					<g>
						<polygon class="st1" points="-16.28,86.4 -16.34,86.37 -20.15,88.57 -20.15,88.84 -16.34,86.64 10.68,102.24 10.68,133.43 
							-16.34,149.03 -20.15,146.83 -20.15,147.11 -16.4,149.27 -16.34,149.3 10.85,133.6 10.91,133.57 10.91,102.1 						"/>
					</g>
					<g>
						<path class="st1" d="M363.54,149.3l-0.06-0.03l-27.19-15.7V102.1l0.06-0.03l27.19-15.7l0.06,0.03l27.19,15.7v31.47l-0.06,0.03
							L363.54,149.3z M336.53,133.43l27.02,15.6l27.02-15.6v-31.2l-27.02-15.6l-27.02,15.6V133.43z"/>
					</g>
					<g>
						<polygon class="st1" points="407.85,143.28 390.79,133.43 390.79,102.24 407.85,92.39 407.85,92.12 390.62,102.07 
							390.56,102.1 390.56,133.57 407.85,143.55 						"/>
					</g>
					<g>
						<polygon class="st1" points="-20.15,146.83 -20.15,147.11 -16.46,149.24 -16.46,180.43 -20.15,182.56 -20.15,182.83 
							-16.28,180.6 -16.22,180.57 -16.22,149.1 						"/>
					</g>
					<g>
						<path class="st1" d="M10.8,196.3l-0.06-0.03l-27.19-15.7V149.1l0.06-0.03l27.19-15.7l0.06,0.03l27.19,15.7v31.47l-0.06,0.03
							L10.8,196.3z M-16.22,180.43l27.02,15.6l27.02-15.6v-31.2l-27.02-15.6l-27.02,15.6V180.43z"/>
					</g>
					<g>
						<path class="st1" d="M65.06,196.3l-0.06-0.03l-27.19-15.7V149.1l0.06-0.03l27.19-15.7l0.06,0.03l27.19,15.7v31.47l-0.06,0.03
							L65.06,196.3z M38.05,180.43l27.02,15.6l27.02-15.6v-31.2l-27.02-15.6l-27.02,15.6V180.43z"/>
					</g>
					<g>
						<path class="st1" d="M119.33,196.3l-0.06-0.03l-27.19-15.7V149.1l0.06-0.03l27.19-15.7l0.06,0.03l27.19,15.7v31.47l-0.06,0.03
							L119.33,196.3z M92.32,180.43l27.02,15.6l27.02-15.6v-31.2l-27.02-15.6l-27.02,15.6V180.43z"/>
					</g>
					<g>
						<polygon class="st1" points="-16.28,180.4 -16.34,180.36 -20.15,182.56 -20.15,182.83 -16.34,180.64 10.68,196.23 
							10.68,227.43 -16.34,243.03 -20.15,240.83 -20.15,241.1 -16.4,243.27 -16.34,243.3 10.85,227.6 10.91,227.57 10.91,196.1 
													"/>
					</g>
					<g>
						<path class="st1" d="M37.93,243.3l-0.06-0.03l-27.19-15.7V196.1l0.06-0.03l27.19-15.7l0.06,0.03l27.19,15.7v31.47l-0.06,0.03
							L37.93,243.3z M10.91,227.43l27.02,15.6l27.02-15.6v-31.2l-27.02-15.6l-27.02,15.6V227.43z"/>
					</g>
					<g>
						<path class="st1" d="M92.2,243.3l-0.06-0.03l-27.19-15.7V196.1l0.06-0.03l27.19-15.7l0.06,0.03l27.19,15.7v31.47l-0.06,0.03
							L92.2,243.3z M65.18,227.43l27.02,15.6l27.02-15.6v-31.2l-27.02-15.6l-27.02,15.6V227.43z"/>
					</g>
					<g>
						<polygon class="st1" points="-20.15,240.83 -20.15,241.1 -16.46,243.23 -16.46,274.43 -20.15,276.56 -20.15,276.83 
							-16.28,274.6 -16.22,274.56 -16.22,243.1 						"/>
					</g>
					<g>
						<path class="st1" d="M10.8,290.3l-0.06-0.03l-27.19-15.7V243.1l0.06-0.03l27.19-15.7l0.06,0.03l27.19,15.7v31.47l-0.06,0.03
							L10.8,290.3z M-16.22,274.43l27.02,15.6l27.02-15.6v-31.2l-27.02-15.6l-27.02,15.6V274.43z"/>
					</g>
					<g>
						<path class="st1" d="M65.06,290.3l-0.06-0.03l-27.19-15.7V243.1l0.06-0.03l27.19-15.7l0.06,0.03l27.19,15.7v31.47l-0.06,0.03
							L65.06,290.3z M38.05,274.43l27.02,15.6l27.02-15.6v-31.2l-27.02-15.6l-27.02,15.6V274.43z"/>
					</g>
					<g>
						<path class="st1" d="M119.33,290.3l-0.06-0.03l-27.19-15.7V243.1l0.06-0.03l27.19-15.7l0.06,0.03l27.19,15.7v31.47l-0.06,0.03
							L119.33,290.3z M92.32,274.43l27.02,15.6l27.02-15.6v-31.2l-27.02-15.6l-27.02,15.6V274.43z"/>
					</g>
					<g>
						<path class="st1" d="M336.41,290.3l-0.06-0.03l-27.19-15.7V243.1l0.06-0.03l27.19-15.7l0.06,0.03l27.19,15.7v31.47l-0.06,0.03
							L336.41,290.3z M309.39,274.43l27.02,15.6l27.02-15.6v-31.2l-27.02-15.6l-27.02,15.6V274.43z"/>
					</g>
					<g>
						<polygon class="st1" points="407.85,280.11 390.68,290.03 363.66,274.43 363.66,243.23 390.68,227.63 407.85,237.55 
							407.85,237.28 390.74,227.4 390.68,227.36 363.48,243.06 363.43,243.1 363.43,274.56 390.62,290.26 390.68,290.3 
							407.85,280.38 						"/>
					</g>
					<g>
						<polygon class="st1" points="-16.28,274.39 -16.34,274.36 -20.15,276.56 -20.15,276.83 -16.34,274.63 10.68,290.23 
							10.68,299.28 10.91,299.28 10.91,290.09 						"/>
					</g>
					<g>
						<polygon class="st1" points="10.91,299.28 10.91,290.23 37.93,274.63 64.95,290.23 64.95,299.28 65.18,299.28 65.18,290.09 
							37.99,274.39 37.93,274.36 10.74,290.06 10.68,290.09 10.68,299.28 						"/>
					</g>
					<g>
						<polygon class="st1" points="65.18,299.28 65.18,290.23 92.2,274.63 119.22,290.23 119.22,299.28 119.45,299.28 
							119.45,290.09 92.26,274.39 92.2,274.36 65.01,290.06 64.95,290.09 64.95,299.28 						"/>
					</g>
					<g>
						<polygon class="st1" points="119.45,299.28 119.45,290.23 146.47,274.63 173.48,290.23 173.48,299.28 173.72,299.28 
							173.72,290.09 146.53,274.39 146.47,274.36 119.27,290.06 119.22,290.09 119.22,299.28 						"/>
					</g>
					<g>
						<polygon class="st1" points="336.53,299.28 336.53,290.23 363.54,274.63 390.56,290.23 390.56,299.28 390.79,299.28 
							390.79,290.09 363.6,274.39 363.54,274.36 336.35,290.06 336.29,290.09 336.29,299.28 						"/>
					</g>
					<g>
						<polygon class="st1" points="407.85,280.11 390.62,290.06 390.56,290.09 390.56,299.28 390.79,299.28 390.79,290.23 
							407.85,280.38 						"/>
					</g>
				</g>
				<g>
					<g>
						<polygon class="st1" points="371.69,-34.72 371.69,-2.79 336.94,17.27 302.2,-2.79 302.2,-34.72 300.97,-34.72 300.97,-2.08 
							336.94,18.69 372.92,-2.08 372.92,-34.72 						"/>
					</g>
					<g>
						<polygon class="st1" points="372.92,-2.79 372.92,-34.72 371.69,-34.72 371.69,-2.08 407.67,18.69 407.85,18.58 407.85,17.17 
							407.67,17.27 						"/>
					</g>
					<g>
						<polygon class="st1" points="-20.15,15.28 -20.15,16.7 -17.31,18.34 -17.31,58.46 -20.15,60.1 -20.15,61.52 -16.08,59.17 
							-16.08,17.63 						"/>
					</g>
					<g>
						<path class="st1" d="M18.67,79.94l-35.98-20.77V17.63L18.67-3.14l35.98,20.77v41.54L18.67,79.94z M-16.08,58.46l34.75,20.06
							l34.75-20.06V18.34L18.67-1.73l-34.75,20.06V58.46z"/>
					</g>
					<g>
						<polygon class="st1" points="407.85,17.17 407.06,17.63 407.06,59.17 407.85,59.63 						"/>
					</g>
					<g>
						<polygon class="st1" points="-16.69,58.11 -20.15,60.1 -20.15,61.52 -16.69,59.52 18.06,79.59 18.06,119.71 -16.69,139.77 
							-20.15,137.78 -20.15,139.2 -16.69,141.19 19.29,120.42 19.29,78.88 						"/>
					</g>
					<g>
						<path class="st1" d="M54.04,141.19l-35.98-20.77V78.88l35.98-20.77l35.98,20.77v41.54L54.04,141.19z M19.29,119.71
							l34.75,20.06l34.75-20.06V79.59L54.04,59.52L19.29,79.59V119.71z"/>
					</g>
					<g>
						<polygon class="st1" points="-20.15,137.78 -20.15,139.2 -17.31,140.84 -17.31,180.96 -20.15,182.6 -20.15,184.02 
							-16.08,181.67 -16.08,140.13 						"/>
					</g>
					<g>
						<path class="st1" d="M18.67,202.44l-35.98-20.77v-41.54l35.98-20.77l35.98,20.77v41.54L18.67,202.44z M-16.08,180.96
							l34.75,20.06l34.75-20.06v-40.13l-34.75-20.06l-34.75,20.06V180.96z"/>
					</g>
					<g>
						<path class="st1" d="M407.85,139.88l-35.55-20.52l-35.98,20.77v41.54l35.98,20.77l35.55-20.52V139.88z M372.31,201.03
							l-34.75-20.06v-40.13l34.75-20.06l34.75,20.06v40.13L372.31,201.03z"/>
					</g>
					<g>
						<polygon class="st1" points="-16.69,180.61 -20.15,182.6 -20.15,184.02 -16.69,182.03 18.06,202.09 18.06,242.22 
							-16.69,262.28 -20.15,260.28 -20.15,261.7 -16.69,263.7 19.29,242.92 19.29,201.38 						"/>
					</g>
					<g>
						<path class="st1" d="M54.04,263.7l-35.98-20.77v-41.54l35.98-20.77l35.98,20.77v41.54L54.04,263.7z M19.29,242.22l34.75,20.06
							l34.75-20.06v-40.13l-34.75-20.06l-34.75,20.06V242.22z"/>
					</g>
					<g>
						<path class="st1" d="M336.94,263.7l-35.98-20.77v-41.54l35.98-20.77l35.98,20.77v41.54L336.94,263.7z M302.2,242.22
							l34.75,20.06l34.75-20.06v-40.13l-34.75-20.06l-34.75,20.06V242.22z"/>
					</g>
					<g>
						<polygon class="st1" points="407.85,262.17 407.67,262.28 372.92,242.22 372.92,202.09 407.67,182.03 407.85,182.13 
							407.85,180.72 407.67,180.61 371.69,201.38 371.69,242.92 407.67,263.7 407.85,263.59 						"/>
					</g>
					<g>
						<polygon class="st1" points="-20.15,260.28 -20.15,261.7 -17.31,263.34 -17.31,299.28 -16.08,299.28 -16.08,262.63 						"/>
					</g>
					<g>
						<polygon class="st1" points="-16.08,299.28 -16.08,263.34 18.67,243.28 53.42,263.34 53.42,299.28 54.65,299.28 54.65,262.63 
							18.67,241.86 -17.31,262.63 -17.31,299.28 						"/>
					</g>
					<g>
						<polygon class="st1" points="54.65,299.28 54.65,263.34 89.4,243.28 124.15,263.34 124.15,299.28 125.38,299.28 
							125.38,262.63 89.4,241.86 53.42,262.63 53.42,299.28 						"/>
					</g>
					<g>
						<polygon class="st1" points="125.38,299.28 125.38,263.34 160.13,243.28 194.88,263.34 194.88,299.28 196.1,299.28 
							196.1,262.63 160.13,241.86 124.15,262.63 124.15,299.28 						"/>
					</g>
					<g>
						<polygon class="st1" points="196.1,299.28 196.1,263.34 230.85,243.28 265.6,263.34 265.6,299.28 266.83,299.28 
							266.83,262.63 230.85,241.86 194.88,262.63 194.88,299.28 						"/>
					</g>
					<g>
						<polygon class="st1" points="266.83,299.28 266.83,263.34 301.58,243.28 336.33,263.34 336.33,299.28 337.56,299.28 
							337.56,262.63 301.58,241.86 265.6,262.63 265.6,299.28 						"/>
					</g>
					<g>
						<polygon class="st1" points="407.85,299.28 407.85,262.38 372.31,241.86 336.33,262.63 336.33,299.28 337.56,299.28 
							337.56,263.34 372.31,243.28 407.06,263.34 407.06,299.28 						"/>
					</g>
					<g>
						<polygon class="st1" points="407.85,262.17 407.06,262.63 407.06,299.28 407.85,299.28 						"/>
					</g>
				</g>
				<g>
					<path class="st1" d="M-16.34-4.43c1.69,0,3.07-1.37,3.07-3.07s-1.37-3.07-3.07-3.07c-1.69,0-3.07,1.37-3.07,3.07
						S-18.03-4.43-16.34-4.43z"/>
					<circle class="st1" cx="200.74" cy="-7.49" r="2.83"/>
					<path class="st1" d="M255.01-4.81c1.48,0,2.68-1.2,2.68-2.68s-1.2-2.68-2.68-2.68c-1.48,0-2.68,1.2-2.68,2.68
						S253.52-4.81,255.01-4.81z"/>
					<circle class="st1" cx="282.14" cy="8.17" r="1.69"/>
					<path class="st1" d="M390.68,11.1c1.62,0,2.93-1.31,2.93-2.93s-1.31-2.93-2.93-2.93c-1.62,0-2.93,1.31-2.93,2.93
						S389.06,11.1,390.68,11.1z"/>
					<circle class="st1" cx="363.54" cy="-7.49" r="3.46"/>
					<path class="st1" d="M230.12,8.17c0-1.24-1.01-2.25-2.25-2.25s-2.25,1.01-2.25,2.25c0,1.24,1.01,2.25,2.25,2.25
						S230.12,9.42,230.12,8.17z"/>
					<circle class="st1" cx="309.27" cy="-7.49" r="1.82"/>
					<circle class="st1" cx="336.41" cy="8.17" r="1.95"/>
					<path class="st1" d="M390.68,36.99c-1.39,0-2.51,1.12-2.51,2.51c0,1.39,1.12,2.51,2.51,2.51c1.39,0,2.51-1.12,2.51-2.51
						C393.19,38.12,392.06,36.99,390.68,36.99z"/>
					<path class="st1" d="M9.02,102.17c0,0.98,0.8,1.78,1.78,1.78s1.78-0.8,1.78-1.78c0-0.98-0.8-1.78-1.78-1.78
						S9.02,101.19,9.02,102.17z"/>
					<circle class="st1" cx="282.14" cy="39.51" r="2.9"/>
					<path class="st1" d="M306.26,55.17c0,1.66,1.35,3.01,3.01,3.01s3.01-1.35,3.01-3.01c0-1.66-1.35-3.01-3.01-3.01
						S306.26,53.51,306.26,55.17z"/>
					<circle class="st1" cx="336.41" cy="102.17" r="1.82"/>
					<path class="st1" d="M309.27,84.13c-1.31,0-2.37,1.06-2.37,2.37s1.06,2.37,2.37,2.37s2.37-1.06,2.37-2.37
						S310.58,84.13,309.27,84.13z"/>
					<circle class="st1" cx="336.41" cy="39.51" r="2.53"/>
					<circle class="st1" cx="363.54" cy="86.5" r="3.59"/>
					<path class="st1" d="M390.68,104.2c1.12,0,2.03-0.91,2.03-2.03c0-1.12-0.91-2.03-2.03-2.03c-1.12,0-2.03,0.91-2.03,2.03
						C388.65,103.29,389.56,104.2,390.68,104.2z"/>
					<path class="st1" d="M363.54,58.73c1.96,0,3.55-1.59,3.55-3.55c0-1.96-1.59-3.55-3.55-3.55c-1.96,0-3.55,1.59-3.55,3.55
						C359.99,57.13,361.58,58.73,363.54,58.73z"/>
					<path class="st1" d="M-16.34,89.96c1.91,0,3.46-1.55,3.46-3.46c0-1.91-1.55-3.46-3.46-3.46c-1.91,0-3.46,1.55-3.46,3.46
						C-19.8,88.41-18.25,89.96-16.34,89.96z"/>
					<path class="st1" d="M10.8,136.44c1.62,0,2.94-1.32,2.94-2.94c0-1.62-1.32-2.94-2.94-2.94s-2.94,1.32-2.94,2.94
						C7.86,135.12,9.17,136.44,10.8,136.44z"/>
					<path class="st1" d="M66.46,133.5c0-0.77-0.63-1.4-1.4-1.4c-0.77,0-1.4,0.63-1.4,1.4c0,0.77,0.63,1.4,1.4,1.4
						C65.84,134.9,66.46,134.27,66.46,133.5z"/>
					<circle class="st1" cx="92.2" cy="149.17" r="2.7"/>
					<path class="st1" d="M121.94,133.5c0-1.44-1.17-2.61-2.61-2.61c-1.44,0-2.61,1.17-2.61,2.61c0,1.44,1.17,2.61,2.61,2.61
						C120.77,136.11,121.94,134.94,121.94,133.5z"/>
					<circle class="st1" cx="146.47" cy="149.17" r="3.05"/>
					<path class="st1" d="M-18.61,180.5c0,1.26,1.02,2.27,2.27,2.27c1.26,0,2.27-1.02,2.27-2.27c0-1.26-1.02-2.27-2.27-2.27
						C-17.59,178.23-18.61,179.24-18.61,180.5z"/>
					<path class="st1" d="M-14.78,149.17c0-0.86-0.7-1.56-1.56-1.56c-0.86,0-1.56,0.7-1.56,1.56s0.7,1.56,1.56,1.56
						C-15.48,150.73-14.78,150.03-14.78,149.17z"/>
					<circle class="st1" cx="37.93" cy="149.17" r="1.28"/>
					<path class="st1" d="M62.92,196.17c0,1.19,0.96,2.15,2.15,2.15c1.19,0,2.15-0.96,2.15-2.15s-0.96-2.15-2.15-2.15
						C63.88,194.02,62.92,194.98,62.92,196.17z"/>
					<path class="st1" d="M37.93,177.4c-1.71,0-3.1,1.39-3.1,3.1c0,1.71,1.39,3.1,3.1,3.1c1.71,0,3.1-1.39,3.1-3.1
						C41.03,178.79,39.64,177.4,37.93,177.4z"/>
					<circle class="st1" cx="146.47" cy="180.5" r="3.34"/>
					<path class="st1" d="M336.41,194.49c-0.92,0-1.67,0.75-1.67,1.67c0,0.92,0.75,1.67,1.67,1.67c0.92,0,1.67-0.75,1.67-1.67
						C338.08,195.24,337.33,194.49,336.41,194.49z"/>
					<circle class="st1" cx="336.41" cy="133.5" r="1.95"/>
					<circle class="st1" cx="363.54" cy="149.17" r="3.82"/>
					<path class="st1" d="M390.68,135.58c1.15,0,2.07-0.93,2.07-2.07c0-1.15-0.93-2.07-2.07-2.07c-1.15,0-2.07,0.93-2.07,2.07
						C388.6,134.65,389.53,135.58,390.68,135.58z"/>
					<circle class="st1" cx="10.8" cy="196.17" r="2.06"/>
					<path class="st1" d="M10.8,230.86c1.86,0,3.37-1.51,3.37-3.37c0-1.86-1.51-3.37-3.37-3.37s-3.37,1.51-3.37,3.37
						C7.43,229.36,8.94,230.86,10.8,230.86z"/>
					<circle class="st1" cx="92.2" cy="180.5" r="3.52"/>
					<path class="st1" d="M118.04,196.17c0,0.71,0.58,1.29,1.29,1.29c0.71,0,1.29-0.58,1.29-1.29c0-0.71-0.58-1.29-1.29-1.29
						C118.62,194.87,118.04,195.45,118.04,196.17z"/>
					<circle class="st1" cx="146.47" cy="243.16" r="2.59"/>
					<path class="st1" d="M119.33,223.53c-2.19,0-3.96,1.78-3.96,3.96c0,2.19,1.78,3.96,3.96,3.96c2.19,0,3.96-1.78,3.96-3.96
						C123.3,225.31,121.52,223.53,119.33,223.53z"/>
					<path class="st1" d="M338.66,227.5c0-1.24-1.01-2.25-2.25-2.25c-1.24,0-2.25,1.01-2.25,2.25c0,1.24,1.01,2.25,2.25,2.25
						C337.65,229.75,338.66,228.74,338.66,227.5z"/>
					<path class="st1" d="M390.68,199.1c1.62,0,2.93-1.31,2.93-2.93c0-1.62-1.31-2.93-2.93-2.93c-1.62,0-2.93,1.31-2.93,2.93
						C387.74,197.79,389.06,199.1,390.68,199.1z"/>
					<path class="st1" d="M390.68,224.57c-1.62,0-2.93,1.31-2.93,2.93c0,1.62,1.31,2.93,2.93,2.93c1.62,0,2.93-1.31,2.93-2.93
						C393.61,225.88,392.3,224.57,390.68,224.57z"/>
					<path class="st1" d="M-16.34,238.85c-1.66,0-3.08,0.95-3.81,2.32v3.99c0.72,1.37,2.15,2.32,3.81,2.32
						c2.38,0,4.32-1.93,4.32-4.32C-12.02,240.78-13.95,238.85-16.34,238.85z"/>
					<path class="st1" d="M10.8,292.03c1.03,0,1.86-0.83,1.86-1.86c0-1.03-0.83-1.86-1.86-1.86s-1.86,0.83-1.86,1.86
						C8.93,291.19,9.77,292.03,10.8,292.03z"/>
					<path class="st1" d="M37.93,278.18c2.03,0,3.68-1.65,3.68-3.68s-1.65-3.68-3.68-3.68s-3.68,1.65-3.68,3.68
						S35.9,278.18,37.93,278.18z"/>
					<path class="st1" d="M37.93,240.56c-1.44,0-2.61,1.17-2.61,2.61c0,1.44,1.17,2.61,2.61,2.61c1.44,0,2.61-1.17,2.61-2.61
						C40.54,241.72,39.37,240.56,37.93,240.56z"/>
					<path class="st1" d="M65.06,230.47c1.64,0,2.97-1.33,2.97-2.97c0-1.64-1.33-2.97-2.97-2.97s-2.97,1.33-2.97,2.97
						C62.1,229.14,63.43,230.47,65.06,230.47z"/>
					<path class="st1" d="M95.59,243.16c0-1.87-1.52-3.39-3.39-3.39s-3.39,1.52-3.39,3.39c0,1.87,1.52,3.39,3.39,3.39
						S95.59,245.04,95.59,243.16z"/>
					<path class="st1" d="M119.33,292.83c1.47,0,2.67-1.19,2.67-2.67c0-1.47-1.19-2.67-2.67-2.67c-1.47,0-2.67,1.19-2.67,2.67
						C116.66,291.64,117.86,292.83,119.33,292.83z"/>
					<circle class="st1" cx="146.47" cy="274.5" r="2.82"/>
					<path class="st1" d="M309.27,245.49c1.29,0,2.33-1.04,2.33-2.33s-1.04-2.33-2.33-2.33c-1.29,0-2.33,1.04-2.33,2.33
						S307.99,245.49,309.27,245.49z"/>
					<circle class="st1" cx="363.54" cy="243.16" r="2.58"/>
					<path class="st1" d="M-16.34,273.1c-0.77,0-1.4,0.63-1.4,1.4c0,0.77,0.63,1.4,1.4,1.4c0.77,0,1.4-0.63,1.4-1.4
						C-14.94,273.72-15.57,273.1-16.34,273.1z"/>
					<path class="st1" d="M65.06,286.64c-1.94,0-3.52,1.58-3.52,3.52c0,1.94,1.58,3.52,3.52,3.52c1.94,0,3.52-1.58,3.52-3.52
						C68.58,288.22,67.01,286.64,65.06,286.64z"/>
					<circle class="st1" cx="92.2" cy="274.5" r="1.57"/>
					<circle class="st1" cx="173.6" cy="290.16" r="2.08"/>
					<path class="st1" d="M309.27,271.89c-1.44,0-2.61,1.17-2.61,2.61s1.17,2.61,2.61,2.61c1.44,0,2.61-1.17,2.61-2.61
						S310.72,271.89,309.27,271.89z"/>
					<path class="st1" d="M334.95,290.16c0,0.8,0.65,1.46,1.46,1.46c0.8,0,1.46-0.65,1.46-1.46c0-0.8-0.65-1.46-1.46-1.46
						C335.6,288.71,334.95,289.36,334.95,290.16z"/>
					<path class="st1" d="M363.54,271.78c-1.5,0-2.71,1.21-2.71,2.71s1.21,2.71,2.71,2.71s2.71-1.21,2.71-2.71
						S365.04,271.78,363.54,271.78z"/>
					<path class="st1" d="M390.68,286.95c-1.77,0-3.21,1.44-3.21,3.21c0,1.77,1.44,3.21,3.21,3.21c1.77,0,3.21-1.44,3.21-3.21
						C393.89,288.39,392.45,286.95,390.68,286.95z"/>
				</g>
			</g>
		</g>
	</g>
</g>
</svg>
